<svg width="40" height="40" viewBox="0 0 40 40" fill="none" xmlns="http://www.w3.org/2000/svg">
<rect width="40" height="40" rx="20" fill="#162218"/>
<path d="M29 20C29 20.7788 28.351 21.4279 27.6154 21.4279H21.3846V27.6587C21.3846 28.3942 20.7356 29 20 29C19.2212 29 18.6154 28.3942 18.6154 27.6587V21.4279H12.3846C11.6058 21.4279 11 20.7788 11 20C11 19.2644 11.6058 18.6587 12.3846 18.6587H18.6154V12.4279C18.6154 11.649 19.2212 11 20 11C20.7356 11 21.3846 11.649 21.3846 12.4279V18.6587H27.6154C28.351 18.6154 29 19.2644 29 20Z" fill="white"/>
</svg>
